<?xml version="1.0" encoding="UTF-8"?>
<svg id="uuid-ebc8ae8c-9730-4890-8eaf-450cb3b5ae28" data-name="Layer 3" xmlns="http://www.w3.org/2000/svg" viewBox="0 0 487.97 663.17">
  <path d="M176.48,215.82c11.28-1.58,22.55-3.32,33.86-4.59s21.66-1.87,32.45-.7c6.02.65,11.97,1.96,17.69,3.97,1.82.64,2.61-2.25.8-2.89-21.09-7.43-43.86-4.52-65.49-1.5-6.7.94-13.4,1.88-20.11,2.81-1.9.27-1.09,3.16.8,2.89h0Z" style="fill: #fff;"/>
  <path d="M262.73,213.56c11.34-16.97,22.69-33.94,34.03-50.9,11.04-16.51,21.91-33.15,33.17-49.52,9.75-14.18,20.63-28.41,35.25-37.91,13.54-8.8,30.85-13.7,46.75-9.06,14.64,4.27,26.01,16.93,29.24,31.78.39,1.77.64,3.56.78,5.37.15,1.91,3.15,1.93,3,0-1.17-15.46-10.72-29.96-24.58-37.01-15.27-7.77-33.42-5.5-48.43,1.69-16.11,7.72-28.38,21.26-38.8,35.43-5.59,7.61-10.77,15.52-16.01,23.36-5.81,8.69-11.62,17.38-17.43,26.07-11.71,17.52-23.43,35.04-35.14,52.56l-4.43,6.62c-1.08,1.61,1.52,3.11,2.59,1.51h0Z" style="fill: #fff;"/>
  <path d="M362.75,73.38c-10.58-11.59-23.72-26.87-17.72-43.81l-2.51.66c7.58,8.87,18.98,14.12,30.64,14.19,1.25,0,2.04-1.68,1.06-2.56-7.52-6.8-12.47-15.98-14.07-25.98l-1.45,1.9c5.49.19,11.36.31,16.4,2.78,3.93,1.93,7.59,5.44,8.18,9.97.1.75.5,1.36,1.3,1.47.69.09,1.5-.34,1.65-1.07.97-5.02-1.11-9.57-1.92-14.44-.48-2.9-.07-6.99,2.46-8.92,2.92-2.23,6.04.32,7.64,2.82,2.01,3.14,2.7,6.84,4.38,10.14,1.77,3.5,4.69,6.77,8.92,6.65.97-.03,1.71-.94,1.45-1.9-1.97-7.11-3.93-14.22-5.9-21.33l-.15,1.16c1.61-2.34,4.84-2.46,7.31-1.66,3.23,1.05,5.25,4.02,6.67,6.94,3.08,6.33,4.18,13.97,10.52,18.1.87.57,2.41-.16,2.26-1.3-.41-3.09-1.1-7.13.87-9.86,1.15-1.59,4.08-2.99,5.78-1.43,1.01.93,1.11,2.55,1.33,3.82.26,1.56.68,3.02,1.47,4.39,1.41,2.44,3.57,4.32,5.51,6.32,2.3,2.38,3.67,4.87,4.29,8.14.72,3.79,1.03,7.69,1.5,11.52.99,7.94,1.97,15.87,2.96,23.81,1.11,8.93,2.22,17.86,3.33,26.79.24,1.89,3.24,1.91,3,0-2.17-17.44-4.34-34.89-6.51-52.33-.51-4.07-.71-8.33-1.78-12.3-.91-3.37-2.87-5.95-5.3-8.38-2.11-2.12-4.55-4.25-5.3-7.27s-.82-6.52-4.25-7.79c-2.98-1.11-6.51.39-8.36,2.82-2.52,3.32-2.07,7.88-1.55,11.75l2.26-1.3c-3.58-2.33-5.33-6.48-6.76-10.33-1.49-4.03-2.91-8.23-5.83-11.48-2.47-2.76-6.14-4.42-9.88-4.02-1.73.18-3.37.77-4.71,1.9-.58.49-1.38,1.24-1.58,2-.17.66.16,1.36.33,1.98.2.71.39,1.42.59,2.13,1.66,6.01,3.32,12.01,4.98,18.02l1.45-1.9c-3.82.1-5.93-3.94-7.16-7.01-1.47-3.67-2.44-7.44-5.17-10.45-2.45-2.7-6.31-3.96-9.64-2.05-3.15,1.81-4.42,5.72-4.57,9.16-.24,5.54,3.25,10.75,2.18,16.3l2.95.4c-.7-5.38-4.32-9.7-9.02-12.23-5.66-3.05-12.28-3.31-18.56-3.53-1.06-.04-1.59.98-1.45,1.9,1.68,10.46,6.99,20.2,14.85,27.3l1.06-2.56c-10.92-.07-21.43-5.01-28.51-13.31-.79-.92-2.16-.31-2.51.66-2.94,8.31-1.34,17.46,2.39,25.24s10.08,14.89,16.1,21.48c1.3,1.43,3.42-.7,2.12-2.12h0Z" style="fill: #fff;"/>
  <path d="M443.84,105.36c4.48,1.59,9.24,1.15,13.89,1.59,4.02.38,7.91,1.74,11.37,3.79,7.19,4.26,12.19,11.33,14.43,19.33,1.36,4.86,1.71,9.92,1.23,14.93l2.8-.76c-1.22-2.24-3.35-3.61-5.5-4.86-2.88-1.67-5.77-3.32-8.65-4.99-5.72-3.3-11.38-6.74-17.24-9.79-10.58-5.52-22.27-8.36-34.23-7.89-6.54.26-13.03,1.47-19.21,3.61-1.81.63-1.03,3.53.8,2.89,10.56-3.67,22.02-4.54,33-2.44,5.63,1.08,11.06,2.91,16.2,5.44,5.52,2.72,10.8,5.95,16.13,9.02,3.03,1.75,6.06,3.49,9.08,5.24,2.44,1.4,5.62,2.69,7.02,5.28.77,1.41,2.66.62,2.8-.76.87-9.19-1.07-18.86-6.29-26.57-4.72-6.97-12.07-12.32-20.38-14-5.43-1.1-11.18-.09-16.46-1.97-1.82-.65-2.61,2.25-.8,2.89h0Z" style="fill: #fff;"/>
  <path d="M401.93,122.56c7.06-2.8,10.97-9.45,17.05-13.6,3.52-2.4,7.63-3.56,11.78-4.3,2.1-.37,4.21-.66,6.33-.9,1.69-.19,3.81-.47,5.19.75s3.57-.84,2.12-2.12c-3.22-2.85-8.06-1.59-11.89-1.03-4.47.65-8.95,1.62-12.96,3.76-3.56,1.9-6.42,4.77-9.25,7.6s-5.53,5.51-9.16,6.95c-1.77.7-1,3.61.8,2.89h0Z" style="fill: #fff;"/>
  <path d="M402,123.36c5.74-.48,10.78,2.94,15.84,5.12s10.44,3.85,15.85,5.17c10.79,2.62,21.83,4.02,32.63,6.59,6.13,1.46,12.2,3.31,17.92,5.97,1.74.81,3.27-1.78,1.51-2.59-20.77-9.65-44.5-8.72-65.58-17.38-5.84-2.4-11.59-6.43-18.18-5.88-1.91.16-1.93,3.16,0,3h0Z" style="fill: #fff;"/>
  <path d="M402.98,78.09c-3.09-.32-6.18-.45-9.01,1.03-1.23.64-2.33,1.49-3.66,1.9s-2.79.51-4.15.87c-2.39.63-4.72,2.33-5.1,4.93-.18,1.2.16,2.32.94,3.25.4.48.9.86,1.27,1.37.45.61.75,1.33,1.06,2.02,2.13,4.72,5.5,8.67,10.02,11.26s10.65,4.08,15.75,1.94,8.43-7.19,13.9-8.11c.62-.11,1.12-.84,1.1-1.45-.09-2.95-.27-6.04-1.69-8.7-1.3-2.43-3.6-3.88-6.13-4.79s-5.12-1.24-7.44-2.47c-2.46-1.31-4.09-4.04-7.23-3.4-1.89.39-1.09,3.28.8,2.89,1.01-.21,2.05,1.01,2.74,1.58.86.72,1.77,1.35,2.79,1.82,2.1.97,4.35,1.45,6.55,2.13s4.11,1.59,5.23,3.58c1.25,2.2,1.3,4.89,1.37,7.35l1.1-1.45c-4.28.72-7.41,3.81-10.82,6.24-1.78,1.27-3.69,2.38-5.88,2.7-2.5.37-5.11-.15-7.47-.99-4.16-1.48-7.86-4.42-10.26-8.12-1.28-1.97-1.91-4.38-3.41-6.2-.58-.7-1.62-1.26-1.31-2.29.28-.94,1.2-1.64,2.08-1.98,1.32-.51,2.77-.59,4.14-.9s2.58-.88,3.78-1.59c1.35-.8,2.6-1.46,4.19-1.62s3.16.02,4.72.18c1.92.2,1.9-2.8,0-3h0Z" style="fill: #fff;"/>
  <path d="M399.45,92.16c1.05-.08,1.96-.41,2.93-.79.37-.15.75-.29,1.13-.39.1-.03.2-.05.3-.07.25-.06-.2.01.06-.01.22-.02.46-.03.68,0-.34-.04.38.14.09.02.09.04.18.09.26.14-.18-.12,0,.01.04.04.19.17.09.1.04.03.06.08.11.16.15.25s.09.17.13.26c-.11-.24.06.19.06.2.26.79.47,1.78.55,2.49.05.45.07.9.04,1.35-.02.33-.02.13,0,.07-.02.1-.05.2-.07.3-.07.28-.05.15-.02.08,0,0-.25.4-.09.19-.12.15-.27.29-.41.41.18-.16-.25.17-.3.2-.37.23-.75.44-1.14.63-.1.05-.2.1-.29.15-.24.11.16-.05-.09.04-.18.07-.36.12-.54.16.26-.05-.43-.02-.18,0-.11-.01-.22-.05-.32-.08-.01,0-.44-.18-.24-.08-.17-.08-.33-.18-.49-.28-.04-.02-.23-.16-.04-.02-.07-.06-.15-.12-.22-.18-.14-.13-.27-.27-.4-.4-.03-.03-.18-.22-.03-.03-.07-.09-.14-.19-.2-.29-.44-.7-.64-1.35-.65-2.18-.01-.9.23-1.86.61-2.64.35-.7.21-1.66-.54-2.05-.68-.36-1.68-.21-2.05.54-1.13,2.31-1.41,4.92-.27,7.28,1.04,2.17,3.52,3.88,5.98,3.26,1.06-.26,2.18-.89,3.06-1.54,1.16-.86,1.8-1.96,1.94-3.4.12-1.23-.13-2.52-.4-3.72s-.64-2.4-1.55-3.23c-1.14-1.04-2.72-1.15-4.16-.8-.58.14-1.12.38-1.67.6s-1.31.47-1.67.5c-.78.06-1.54.65-1.5,1.5.03.76.66,1.56,1.5,1.5h0Z" style="fill: #fff;"/>
  <path d="M384.38,135.5c2.19-.2,3.37,1.92,4.52,3.44,1.21,1.6,2.84,2.92,3.84,4.66s1.44,4.02,1.97,6.03c.59,2.22,1.13,4.45,1.51,6.72.74,4.47-.21,9.14,1.27,13.47.73,2.12,1.62,4.19,2.45,6.28.78,1.96,1.41,4.16,2.57,5.94,1.92,2.96,5.36,4.1,8.77,3.63,3.66-.51,6.55-2.88,8.74-5.74,1.14-1.49,2.11-3.09,3-4.73,1.04-1.92,1.99-4.05,1.92-6.28-.07-2.07-1.06-3.97-1.64-5.93-.63-2.16-1.07-4.37-1.53-6.57-.51-2.48-.94-4.97-1-7.51-.06-2.31.09-4.61.19-6.91.19-4.63.07-9.28-2.04-13.52-.86-1.73-3.45-.21-2.59,1.51,1.76,3.52,1.8,7.5,1.66,11.35s-.4,7.97.19,11.97,1.43,8.33,2.81,12.23c.75,2.12,1.27,3.8.46,6.01-.65,1.78-1.72,3.48-2.75,5.06-1.83,2.82-4.36,5.61-7.87,6.09-1.39.19-2.91.02-4.14-.7-1.66-.96-2.29-2.82-2.96-4.51-.79-2-1.59-4-2.38-6s-1.59-3.93-1.69-6.07.1-4.3-.09-6.45-.54-4.18-.99-6.24c-.94-4.28-1.76-9.24-4.7-12.66-.68-.79-1.44-1.52-2.11-2.33s-1.21-1.66-1.85-2.45c-1.36-1.68-3.28-3.02-5.53-2.81-1.91.18-1.92,3.18,0,3h0Z" style="fill: #fff;"/>
  <path d="M421.7,177.97c2.96,1.64,6.75,2.48,9.73.39,2.77-1.95,4.59-5.52,6.05-8.49,1.6-3.27,2.74-6.73,3.15-10.36.44-3.92-.32-7.79-.92-11.65-.63-4.06-1.01-8.48,1.04-12.22.93-1.69-1.66-3.21-2.59-1.51-4.52,8.24.64,17.18-.59,25.82-.6,4.23-2.36,8.2-4.57,11.82-.99,1.61-2.11,3.7-3.92,4.51-1.92.86-4.15.06-5.87-.89s-3.2,1.65-1.51,2.59h0Z" style="fill: #fff;"/>
  <path d="M417.25,129.24c1.93,0,1.93-3,0-3s-1.93,3,0,3h0Z" style="fill: #fff;"/>
  <path d="M408.24,184.21c3.73,20.14,5.44,40.65,5.11,61.13s-2.84,41.3-4.81,61.87c-.99,10.35-1.98,20.7-2.98,31.06-.25,2.65-.51,5.3-.76,7.95-.24,2.51-.33,5.09-.84,7.56-.93,4.53-4.7,6.81-7.98,9.63-6.52,5.62-12.1,12.36-16.46,19.77-2.18,3.71-4.04,7.61-5.59,11.62-1.37,3.54-2.44,7.24-4.41,10.51-.9,1.49-2,2.89-3.42,3.92-1.59,1.16-3.65,1.61-4.98,3.12-1.43,1.63-1.99,3.92-2.97,5.83s-2.15,3.79-3.47,5.51c-2.75,3.59-6.24,6.26-9.74,9.06s-6.51,5.84-7.78,10.08c-.59,1.97-.65,4.02-.16,6.01.46,1.87,3.36,1.08,2.89-.8-1.07-4.31,1.71-8.32,4.73-11.11,3.28-3.03,7.08-5.42,10.13-8.72s5.41-6.95,7.13-10.99c.39-.92.71-1.97,1.35-2.76s1.76-1.19,2.69-1.65c1.66-.83,3.15-2.02,4.35-3.44,2.4-2.85,3.79-6.34,5.07-9.8,1.44-3.92,2.93-7.78,4.87-11.49,4-7.66,9.27-14.62,15.59-20.52,3.06-2.86,6.97-5.2,9.33-8.72,1.24-1.86,1.74-4.03,2.02-6.21.32-2.47.5-4.96.74-7.44,1-10.44,2-20.87,3-31.31,1.99-20.71,4.51-41.45,5.28-62.25.76-20.33-.52-40.73-3.75-60.82-.4-2.48-.83-4.96-1.29-7.44-.35-1.9-3.24-1.09-2.89.8h0Z" style="fill: #fff;"/>
  <path d="M290.68,447c-1.33,9.26,2.49,18.16,3.65,27.24.61,4.71.98,9.46,1.57,14.17s1.29,9.35,2.11,14c.41,2.34.69,4.82,1.41,7.09.57,1.8,1.67,3.56,3.65,3.94.59.11,1.42-.06,1.69-.69.53-1.24,1.1-3.01,2.34-3.73.67-.38,1.78-.32,1.92.56.29,1.77,2.82,1.18,2.95-.4.06-.75.12-1.51.18-2.26l-1.9,1.45c3.1,1.21,6.52-.04,8.43-2.67l-2.74-.36c.25,1.19.24,2.79,1.35,3.51.93.6,2.09.72,3.15.44,2.5-.67,3.53-3.1,4.23-5.35l-2.2.9c1.72,1.05,3.89.89,5.55-.21.85-.56,1.53-1.29,2.12-2.11.52-.72.86-1.75,1.48-2.38s1.68-.4,2.48-.7c.87-.32,1.58-.91,2.16-1.63,1.22-1.52,1.76-3.48,2.26-5.33,1.29-4.79,1.74-9.68,1.75-14.63s-.03-9.58,1.04-14.33c.59-2.64,1.16-5.28.94-8s-.98-5.46-1.77-8.12c-.55-1.85-3.45-1.06-2.89.8.62,2.08,1.25,4.18,1.55,6.33s.12,4.26-.32,6.38c-.89,4.22-1.51,8.27-1.55,12.6s.11,8.71-.56,13.02c-.33,2.13-.8,4.23-1.42,6.29-.37,1.26-.88,3.35-2.3,3.83-1,.34-1.94.14-2.86.79-.72.51-1.19,1.26-1.61,2.01-.85,1.49-2.5,4.03-4.52,2.79-.85-.52-1.92,0-2.2.9-.35,1.12-1.36,4.28-3.11,3.02l.69.9-.53-2.52c-.29-1.38-2.05-1.31-2.74-.36-1.16,1.6-3.27,1.98-5.04,1.29-.98-.38-1.83.57-1.9,1.45-.06.75-.12,1.51-.18,2.26l2.95-.4c-.37-2.26-2.88-3.27-4.93-2.88-2.62.5-3.87,3.12-4.82,5.33l1.69-.69c-1.42-.27-1.69-2.2-1.93-3.39-.42-2.09-.8-4.18-1.16-6.28-.76-4.39-1.42-8.79-1.96-13.21s-.89-8.64-1.42-12.95-1.41-8.36-2.38-12.51c-1.1-4.7-2.14-9.57-1.45-14.41.12-.81-.2-1.6-1.05-1.85-.7-.2-1.73.25-1.85,1.05h0Z" style="fill: #fff;"/>
  <path d="M304.79,426.48c-1.89,3.41-3.78,6.82-5.68,10.24-.87,1.56-1.73,3.13-2.6,4.69-.36.64-.7,1.49-1.3,1.94-.71.53-1.8.59-2.62.87-3.07,1.03-5.7,2.94-8.18,4.98s-5.05,4.44-7.37,6.86c-4.54,4.73-8.59,9.95-12.03,15.53-1.76,2.86-3.37,5.81-4.8,8.85-.65,1.39-1.34,2.8-1.76,4.28-.56,1.97-.43,3.94-.23,5.94.4,4.15-.21,8.1-1.28,12.11-1.13,4.24-2.43,8.44-3.66,12.65-.54,1.86,2.35,2.65,2.89.8,1.1-3.76,2.22-7.52,3.28-11.29.96-3.43,1.8-6.93,1.92-10.5.07-1.91-.23-3.78-.33-5.69s.3-3.53,1.05-5.26c1.29-2.95,2.8-5.81,4.42-8.58,3.33-5.69,7.28-11,11.78-15.81,2.29-2.45,4.72-4.78,7.27-6.96s5.09-4.2,8.22-5.15c1.71-.52,3.16-.85,4.28-2.36s1.98-3.42,2.92-5.11l6.39-11.51c.94-1.69-1.65-3.2-2.59-1.51h0Z" style="fill: #fff;"/>
  <path d="M300.64,514.34c3.42,16.2,5.59,32.65,6.46,49.19.25,4.69.39,9.39.43,14.09l2.26-1.3c-4.86-2.47-9.59,2.72-13.02,5.5-4.59,3.72-9.18,7.44-13.77,11.17-.95.77-.29,2.17.66,2.51,2.75.97,5.64.49,8.34-.41,2.85-.95,5.59-2.14,8.5-2.91,5.9-1.55,12.02-1.91,18.07-1.19l-1.45-1.9c-1.42,7.42,3.91,13.31,6.92,19.54,1.63,3.37,2.81,6.99,5.27,9.88,2.21,2.59,5.56,4.51,9.05,4.06.79-.1,1.52-.6,1.5-1.5-.22-11.93-1.93-23.81-5.07-35.32l-2.51,1.46c3.13,2.99,7.2,4.51,11.39,5.34,4.8.95,9.72,1.35,14.58,1.9,10.91,1.23,21.84,2.29,32.78,3.19,5.51.45,11.03.86,16.54,1.22,2.72.18,5.44.35,8.16.51,2.05.12,4.24.45,6.23-.28,1.65-.61,2.95-2,2.64-3.86-.36-2.2-2.73-3.33-4.42-4.41-4.11-2.6-8.36-4.98-12.73-7.12-9.92-4.86-20.4-8.52-31.19-10.88l-.4,2.95c10.08-.94,20.2-1.7,30.26-2.83,7.4-.83,15.31-2.52,19.95-8.89.55-.75,0-2.03-.9-2.2-12.3-2.36-24.6-5.06-37.02-6.71-12.26-1.63-24.69-1.77-37.01-.76-6.99.57-13.94,1.51-20.85,2.72l1.9,1.45c-1.56-15.74,3.2-31.12,3.84-46.76.18-4.46-.02-8.91-.72-13.32-.3-1.9-3.19-1.09-2.89.8,2.43,15.4-2.14,30.76-3.29,46.06-.33,4.41-.38,8.83.06,13.23.1,1.03.87,1.63,1.9,1.45,11.98-2.1,24.12-3.31,36.28-3.25,12.31.06,24.35,1.77,36.42,4.07,6.86,1.31,13.72,2.63,20.58,3.94l-.9-2.2c-4.21,5.78-12.2,6.9-18.8,7.56-9.6.96-19.21,1.79-28.82,2.68-1.57.15-2.17,2.56-.4,2.95,8.8,1.92,17.42,4.69,25.66,8.33,4.11,1.82,8.13,3.84,12.04,6.07,1.99,1.13,3.94,2.31,5.87,3.54.75.48,1.69.93,2.29,1.59.49.53.32.76-.31,1.02-1.78.74-4.19.18-6.03.07-2.47-.15-4.94-.3-7.41-.46-5.02-.33-10.05-.7-15.06-1.1-10.04-.81-20.06-1.76-30.07-2.85-5.34-.58-10.73-1.07-16.04-1.91-4.31-.68-8.75-1.81-11.99-4.91-1.07-1.02-2.91,0-2.51,1.46,3.08,11.26,4.75,22.85,4.97,34.52l1.5-1.5c-7.09.91-9.5-7.98-11.92-12.84-2.56-5.14-7.61-10.69-6.43-16.84.2-1.04-.43-1.78-1.45-1.9-5.85-.7-11.81-.37-17.55.97-2.8.65-5.46,1.62-8.14,2.63s-5.57,2.02-8.43,1.02l.66,2.51c3.95-3.21,7.91-6.41,11.86-9.62,1.91-1.55,3.8-3.13,5.74-4.65,1.42-1.12,3.67-2.89,5.56-1.93.99.5,2.27-.1,2.26-1.3-.15-16.74-1.61-33.47-4.34-49.99-.78-4.72-1.67-9.41-2.66-14.09-.4-1.89-3.29-1.09-2.89.8h0Z" style="fill: #fff;"/>
  <path d="M223.32,449.8c-1.27,2.59-3.74,4.37-4.95,6.99-.69,1.49-.67,2.9-.76,4.5-.11,1.85-1.18,3.37-1.94,5-3.08,6.56-4.4,13.92-3.67,21.15.4,4,1.19,7.96,1.85,11.92.63,3.75,1.14,7.55,1.95,11.27.75,3.46,2.1,6.71,3.99,9.71.83,1.31,1.75,2.57,3.27,3.11,1.6.57,3.34.28,4.95-.12.99-.24,1.99-.49,2.96-.79.65-.2,1.39-.75,2.05-.85.62-.09,1.13.47,1.6.81.61.45,1.24.86,1.98,1.05,1.73.44,3.31-.55,4.27-1.93s1.03-3.45,2.26-4.69l-2.51-.66c.31,1.65,1.28,3.13,2.68,4.07s3.07,1.18,3.89-.51c.89-1.82,1.4-3.91,2.08-5.82.75-2.13,1.5-4.25,2.25-6.38h-2.89c1.22,2.95,2.54,5.85,3.98,8.7.87,1.72,3.46.21,2.59-1.51-1.32-2.62-2.55-5.28-3.67-7.98-.56-1.35-2.37-1.48-2.89,0-.7,1.97-1.39,3.95-2.09,5.92-.32.91-.64,1.82-.96,2.73-.16.46-.32.91-.48,1.37-.15.42-.29,1.37-.62,1.68l1.06-.44c-1.1.11-1.87-1.83-2.02-2.62-.21-1.13-1.76-1.41-2.51-.66-1.03,1.04-1.48,2.31-1.95,3.66-.4,1.16-1.02,2.72-2.41,1.81-.89-.58-1.65-1.32-2.72-1.56-1.49-.34-2.77.64-4.14,1.03s-2.99.96-4.49,1.01c-1.67.07-2.36-1.03-3.15-2.32-1.78-2.9-2.93-5.96-3.6-9.29-.71-3.51-1.22-7.06-1.81-10.59s-1.3-7.08-1.69-10.64c-.74-6.69.23-13.56,3.02-19.71.72-1.59,1.72-3.11,2.22-4.8s.03-3.42.64-5c1.04-2.71,3.71-4.49,4.98-7.1.85-1.73-1.74-3.25-2.59-1.51h0Z" style="fill: #fff;"/>
  <path d="M222.28,523.89c-.88,11.02,1.82,21.86,4.7,32.41,1.45,5.32,2.95,10.63,4.08,16.03s2.24,10.92,4.12,16.25c1.05,2.98,1.53,6,1.98,9.12.49,3.35.97,6.7,1.46,10.05.28,1.9,3.17,1.09,2.89-.8-.43-2.94-.85-5.88-1.28-8.82-.39-2.72-.67-5.5-1.44-8.15s-1.83-5.12-2.53-7.75-1.24-5.41-1.78-8.12c-2.13-10.75-5.73-21.15-7.87-31.9-1.2-6.03-1.82-12.16-1.33-18.3.15-1.92-2.85-1.91-3,0h0Z" style="fill: #fff;"/>
  <path d="M237.91,606.6c-12.31,7.79-24.57,15.67-36.77,23.63-1.34.87-.49,3.43,1.16,2.74,10.71-4.49,22.75-2.35,33.7-5.92l-1.69-2.2c-2.76,5.29-3.37,11.21-4.01,17.05-.73,6.61-1.46,13.22-2.19,19.83-.17,1.57,2.07,1.92,2.8.76,8.96-14.38,20.3-27.18,33.46-37.86,1.5-1.22-.63-3.33-2.12-2.12-13.35,10.83-24.84,23.87-33.93,38.47l2.8.76c.69-6.28,1.39-12.56,2.08-18.84.62-5.6,1.06-11.44,3.71-16.53.57-1.1-.39-2.63-1.69-2.2-10.95,3.56-22.98,1.42-33.7,5.92l1.16,2.74c12.2-7.96,24.46-15.83,36.77-23.63,1.63-1.03.12-3.63-1.51-2.59h0Z" style="fill: #fff;"/>
  <path d="M262.45,625.5c20.12,5.59,40.62,9.76,61.32,12.47,5.9.77,11.81,1.43,17.74,1.96,1.07.1,1.96-1.38,1.3-2.26-4.36-5.75-10.1-10.17-16.82-12.82-3.81-1.51-7.81-2.44-11.78-3.41-4.28-1.05-8.56-2.09-12.85-3.14-4.77-1.16-9.53-2.33-14.3-3.49l-.4,2.95c10.91,0,21.8-1.37,32.36-4.08,1.14-.29,1.4-1.69.66-2.51-2.36-2.61-5.8-3.56-9.1-4.36-4.23-1.03-8.48-1.97-12.75-2.82-8.51-1.7-17.09-3.05-25.72-4.06-4.97-.58-9.94-1.04-14.93-1.39-1.93-.14-1.92,2.87,0,3,16.68,1.17,33.25,3.65,49.54,7.44,3.65.85,8.19,1.38,10.83,4.31l.66-2.51c-10.32,2.65-20.91,3.98-31.57,3.98-1.67,0-2.07,2.54-.4,2.95,10.28,2.51,20.59,4.94,30.85,7.54,4.67,1.19,9.24,2.63,13.38,5.16,3.75,2.29,7.07,5.28,9.72,8.78l1.3-2.26c-20.61-1.87-41.07-5.19-61.21-9.94-5.71-1.35-11.4-2.81-17.05-4.38-1.86-.52-2.66,2.38-.8,2.89h0Z" style="fill: #fff;"/>
  <path d="M258.87,599.75c.59-11.46.3-22.96-.9-34.37-.58-5.54-1.12-11.26-2.61-16.64-1.4-5.09-3.96-9.79-3.95-15.18,0-6.31,2.55-12.34,4.98-18.05.75-1.76-1.83-3.29-2.59-1.51-2.19,5.13-4.37,10.33-5.12,15.9-.37,2.73-.35,5.47.16,8.18s1.47,5.12,2.38,7.63c1.92,5.34,2.72,10.88,3.4,16.5s1.17,11.75,1.39,17.64c.26,6.63.2,13.28-.14,19.91-.1,1.93,2.9,1.92,3,0h0Z" style="fill: #fff;"/>
  <path d="M214.57,470.2c-5.34.3-10.61-1.47-15.37-3.76-5.58-2.7-10.78-6.22-15.57-10.14-4.54-3.71-8.81-7.81-12.58-12.31s-6.76-9.46-9.41-14.61c-6.01-11.68-10.07-24.27-14.09-36.74s-7.81-24.89-13.26-36.73c-1.28-2.77-2.6-5.57-4.22-8.16s-3.7-5.16-5.88-7.46c-4.52-4.78-9.72-8.85-14.5-13.36-5.17-4.88-9.27-10.37-12.66-16.62-3.72-6.86-6.63-14.11-9.72-21.26-6.37-14.72-13.17-29.24-20.39-43.56s-14.78-28.29-22.78-42.1-16.48-27.52-25.31-40.9c-4.17-6.32-9.14-12.56-11.85-19.7-2.74-7.23-1.76-14.78-2.04-22.32-.14-3.66-.63-7.32-1.99-10.74-.56-1.41-3.16-1.43-2.95.4,1.22,10.32,7.44,19.7,16.64,24.63,1.09.59,2.63-.39,2.2-1.69-2.99-9.14-4.72-18.63-5.1-28.25l-2.95.4c2.36,7.04,7.27,13.02,13.77,16.63,1.11.61,2.6-.41,2.2-1.69-2.16-6.99-4.32-13.98-6.48-20.98l-2.51,1.46c3.81,3.2,7.62,6.4,11.42,9.6,1.47,1.23,3.6-.88,2.12-2.12-3.81-3.2-7.62-6.4-11.42-9.6-1.07-.9-2.98-.08-2.51,1.46,2.16,6.99,4.32,13.98,6.48,20.98l2.2-1.69c-5.81-3.22-10.28-8.52-12.39-14.83-.51-1.54-3.02-1.37-2.95.4.39,9.87,2.14,19.66,5.21,29.05l2.2-1.69c-8.19-4.39-14.06-12.77-15.15-22.04l-2.95.4c2.86,7.18,1.59,14.97,1.97,22.49.19,3.84.86,7.59,2.3,11.17s3.26,6.72,5.29,9.86c4.31,6.67,8.81,13.21,13.09,19.9s8.66,13.77,12.84,20.75c8.32,13.89,16.22,28.03,23.71,42.39s14.55,28.93,21.17,43.71c3.24,7.23,6.26,14.57,9.51,21.8s6.59,13.78,11.33,19.73c8.16,10.24,20.57,16.79,27.08,28.39,6.28,11.19,10.18,23.7,14.11,35.85,4.12,12.76,8.05,25.63,13.52,37.89,2.55,5.71,5.45,11.28,8.99,16.44,3.18,4.62,6.93,8.81,11,12.66,4.58,4.34,9.56,8.3,14.89,11.67,4.99,3.16,10.45,5.93,16.24,7.26,2.44.56,4.96.86,7.46.72,1.92-.11,1.93-3.11,0-3h0Z" style="fill: #fff;"/>
  <path d="M32.32,108.3c-1.37-6.46-2.74-12.92-4.11-19.38l-2.51,1.46c6.39,5.92,12.79,11.83,19.18,17.75,1.2,1.11,3.32-.33,2.36-1.82-6.53-10.12-10.79-21.52-12.5-33.44l-2.2,1.69c10.75,6.48,23.04,10.13,35.58,10.62,1.29.05,1.99-1.68,1.06-2.56-8.62-8.2-15.78-17.79-21.21-28.38l-1.69,2.2c11.27,3.06,22.55,6.13,33.82,9.19,1.06.29,2.21-.74,1.85-1.85-.93-2.8-2.38-5.37-3.63-8.04-1.18-2.51-2.14-5.24-1.45-8.02l-2.51.66c5.7,6.87,12.33,12.89,19.68,17.96,1.03.71,2.67-.49,2.2-1.69-2.08-5.39-3.49-10.89-2.38-16.67s3.65-10.64,6.21-15.63l-2.74-.36c7.32,24.02,23.77,43.59,34.25,66.13,5.73,12.32,8.91,25.51,11.76,38.74s5.69,26.65,10.3,39.52c5.07,14.12,11.77,27.64,19.95,40.21,1.05,1.61,3.65.11,2.59-1.51-7.3-11.22-13.45-23.19-18.24-35.69s-7.93-25.62-10.74-38.78-5.7-26.79-11.01-39.43c-4.78-11.38-11.25-21.91-17.6-32.46-7.18-11.95-14.28-24.11-18.37-37.52-.36-1.17-2.13-1.55-2.74-.36-2.73,5.33-5.54,10.83-6.59,16.78s.23,12.04,2.46,17.83l2.2-1.69c-7.13-4.93-13.54-10.83-19.07-17.49-.73-.88-2.25-.37-2.51.66-1.62,6.51,3.16,11.83,5.09,17.66l1.85-1.85c-11.27-3.06-22.55-6.13-33.82-9.19-1.31-.36-2.28,1.06-1.69,2.2,5.53,10.8,12.89,20.63,21.68,28.99l1.06-2.56c-12.02-.47-23.77-4.01-34.06-10.21-1.24-.74-2.38.48-2.2,1.69,1.74,12.15,6.14,23.85,12.8,34.16l2.36-1.82c-6.39-5.92-12.79-11.83-19.18-17.75-1.13-1.04-2.82,0-2.51,1.46,1.37,6.46,2.74,12.92,4.11,19.38.4,1.89,3.29,1.09,2.89-.8h0Z" style="fill: #fff;"/>
</svg>