<?xml version="1.0" encoding="UTF-8"?>
<svg id="uuid-ac6c6a09-a23b-41ae-9c83-aa6e92442faf" data-name="uuid-cd9113c5-2a04-48f6-b4c5-15c7c1a21092" xmlns="http://www.w3.org/2000/svg" viewBox="0 0 200.14 819.81">
  <g id="uuid-bdcce02b-80b7-492f-95b5-88c347971709" data-name="uuid-6444f7cd-e812-4208-ae2a-433dc14e9c64">
    <path d="M196.37,13.02c-.81,1.22-1.3,2.68-1.72,4.07-.62,2.02-1.06,4.1-1.46,6.18-.56,2.93-.99,5.88-1.39,8.84-.47,3.54-.87,7.1-1.23,10.65-.43,4.25-.8,8.5-1.13,12.76-.38,4.86-.72,9.73-1.03,14.59-.35,5.48-.66,10.95-.95,16.43-.32,6.02-.6,12.04-.87,18.06-.29,6.48-.55,12.96-.79,19.45-.26,6.96-.5,13.92-.72,20.89-.24,7.33-.45,14.65-.66,21.98-.22,7.71-.42,15.43-.61,23.14-.2,7.98-.38,15.96-.56,23.94s-.36,16.56-.53,24.84-.33,16.9-.49,25.34c-.16,8.65-.32,17.31-.47,25.96s-.3,17.54-.45,26.31-.29,17.59-.44,26.39-.29,17.73-.44,26.59c-.14,8.79-.29,17.59-.44,26.38s-.3,17.53-.45,26.3-.31,17.21-.47,25.81-.32,16.96-.49,25.44-.34,16.53-.53,24.8-.37,15.93-.56,23.9-.4,15.39-.61,23.09-.43,14.61-.66,21.92-.47,13.88-.73,20.82c-.24,6.46-.51,12.91-.79,19.37-.27,5.99-.55,11.99-.87,17.98-.29,5.42-.6,10.84-.95,16.26-.31,4.86-.65,9.72-1.04,14.57-.34,4.22-.71,8.44-1.14,12.65-.19,1.85-.39,3.69-.61,5.53-.1.87-.21,1.73-.32,2.59-.05.41-.1.81-.16,1.22-.03.19-.05.38-.08.57-.04.28.04-.3,0-.02,0,.11-.03.22-.04.33-.38,2.8-.81,5.6-1.36,8.37-.4,2.02-.84,4.04-1.47,6-.12.38-.25.76-.39,1.13-.06.17-.13.33-.19.5-.12.32.15-.33.04-.1-.04.08-.07.17-.11.25-.77,1.64-1.9,3.08-2.91,4.57-7.99,11.89-16.25,23.76-26.64,33.71s-22.11,17.05-35.83,19.9c-12.85,2.67-26.61.66-37.13-7.54-9.32-7.26-15.6-18.42-16.5-30.24-.15-1.91-3.15-1.93-3,0,.94,12.42,7.25,24.22,16.96,32.03,10.4,8.36,23.67,11.14,36.74,9.29,13.74-1.94,26.38-8.65,36.81-17.62,10.92-9.39,19.61-21.06,27.71-32.89,1.93-2.82,3.92-5.63,5.75-8.53.15-.23.28-.47.41-.71.37-.71.67-1.47.93-2.23.65-1.84,1.09-3.75,1.49-5.65.56-2.67.99-5.37,1.38-8.07.5-3.51.93-7.02,1.3-10.55.44-4.12.82-8.26,1.16-12.39.39-4.76.74-9.52,1.06-14.28.36-5.38.68-10.77.97-16.16.32-5.91.61-11.83.88-17.74.29-6.45.56-12.9.81-19.36.27-6.91.51-13.83.74-20.74.24-7.29.46-14.58.67-21.87.22-7.69.43-15.38.62-23.08.2-7.97.39-15.94.57-23.91s.36-16.56.53-24.84c.17-8.46.34-16.92.5-25.37s.32-17.35.47-26.02.31-17.51.45-26.27.3-17.75.44-26.63.29-17.72.44-26.59c.15-8.89.29-17.78.44-26.66.15-8.78.3-17.56.45-26.34s.31-17.42.47-26.12c.16-8.55.32-17.09.49-25.64s.34-16.59.52-24.88.37-16.16.56-24.23.39-15.47.61-23.2.43-14.84.66-22.26c.22-6.98.46-13.97.72-20.95.24-6.57.51-13.14.79-19.7.26-6.04.55-12.08.86-18.12.29-5.53.6-11.05.95-16.58.31-4.91.65-9.82,1.04-14.72.34-4.29.71-8.59,1.14-12.87.36-3.61.76-7.21,1.24-10.8.04-.31-.02.11,0,.02s.03-.19.04-.28c.03-.2.06-.4.08-.61.05-.38.11-.76.16-1.14l.33-2.22c.21-1.34.44-2.67.69-4,.4-2.09.85-4.18,1.47-6.21.11-.37.23-.74.36-1.1.06-.17.13-.35.19-.52.09-.23.26-.62.05-.14.23-.52.47-1.04.79-1.51,1.07-1.61-1.53-3.12-2.59-1.51h.07Z" style="fill: #fff; stroke: #fff; stroke-linecap: round; stroke-linejoin: round; stroke-width: 2px;"/>
    <path d="M126.2,745.43c10.58,11.59,23.72,26.87,17.72,43.81l2.51-.66c-7.58-8.87-18.98-14.12-30.64-14.19-1.25,0-2.04,1.68-1.06,2.56,7.52,6.8,12.47,15.98,14.07,25.98l1.45-1.9c-5.49-.19-11.36-.31-16.4-2.78-3.93-1.93-7.59-5.44-8.18-9.97-.1-.75-.5-1.36-1.3-1.47-.69-.09-1.5.34-1.65,1.07-.97,5.02,1.11,9.57,1.92,14.44.48,2.9.07,6.99-2.46,8.92-2.92,2.23-6.04-.32-7.64-2.82-2.01-3.14-2.7-6.84-4.38-10.14-1.77-3.5-4.69-6.77-8.92-6.65-.97.03-1.71.94-1.45,1.9,1.97,7.11,3.93,14.22,5.9,21.33l.15-1.16c-1.61,2.34-4.84,2.46-7.31,1.66-3.23-1.05-5.25-4.02-6.67-6.94-3.08-6.33-4.18-13.97-10.52-18.1-.87-.57-2.41.16-2.26,1.3.41,3.09,1.1,7.13-.87,9.86-1.15,1.59-4.08,2.99-5.78,1.43-1.01-.93-1.11-2.55-1.33-3.82-.26-1.56-.68-3.02-1.47-4.39-1.41-2.44-3.57-4.32-5.51-6.32-2.3-2.38-3.67-4.87-4.29-8.14-.72-3.79-1.03-7.69-1.5-11.52-.99-7.94-1.97-15.87-2.96-23.81-1.11-8.93-2.22-17.86-3.33-26.79-.24-1.89-3.24-1.91-3,0,2.17,17.44,4.34,34.89,6.51,52.33.51,4.07.71,8.33,1.78,12.3.91,3.37,2.87,5.95,5.3,8.38,2.11,2.12,4.55,4.25,5.3,7.27s.82,6.52,4.25,7.79c2.98,1.11,6.51-.39,8.36-2.82,2.52-3.32,2.07-7.88,1.55-11.75l-2.26,1.3c3.58,2.33,5.33,6.48,6.76,10.33s2.91,8.23,5.83,11.48c2.47,2.76,6.14,4.42,9.88,4.02,1.73-.18,3.37-.77,4.71-1.9.58-.49,1.38-1.24,1.58-2,.17-.66-.16-1.36-.33-1.98-.2-.71-.39-1.42-.59-2.13-1.66-6.01-3.32-12.01-4.98-18.02l-1.45,1.9c3.82-.1,5.93,3.94,7.16,7.01,1.47,3.67,2.44,7.44,5.17,10.45,2.45,2.7,6.31,3.96,9.64,2.05,3.15-1.81,4.42-5.72,4.57-9.16.24-5.54-3.25-10.75-2.18-16.3l-2.95-.4c.7,5.38,4.32,9.7,9.02,12.23,5.66,3.05,12.28,3.31,18.56,3.53,1.06.04,1.59-.98,1.45-1.9-1.68-10.46-6.99-20.2-14.85-27.3l-1.06,2.56c10.92.07,21.43,5.01,28.51,13.31.79.92,2.16.31,2.51-.66,2.94-8.31,1.34-17.46-2.39-25.24s-10.08-14.89-16.1-21.48c-1.3-1.43-3.42.7-2.12,2.12h.02Z" style="fill: #fff; stroke: #fff; stroke-linecap: round; stroke-linejoin: round; stroke-width: 2px;"/>
    <path d="M45.12,713.45c-4.48-1.59-9.24-1.15-13.89-1.59-4.02-.38-7.91-1.74-11.37-3.79-7.19-4.26-12.19-11.33-14.43-19.33-1.36-4.86-1.71-9.92-1.23-14.93l-2.8.76c1.22,2.24,3.35,3.61,5.5,4.86,2.88,1.67,5.77,3.32,8.65,4.99,5.72,3.3,11.38,6.74,17.24,9.79,10.58,5.52,22.27,8.36,34.23,7.89,6.54-.26,13.03-1.47,19.21-3.61,1.81-.63,1.03-3.53-.8-2.89-10.56,3.67-22.02,4.54-33,2.44-5.63-1.08-11.06-2.91-16.2-5.44-5.52-2.72-10.8-5.95-16.13-9.02-3.03-1.75-6.06-3.49-9.08-5.24-2.44-1.4-5.62-2.69-7.02-5.28-.77-1.41-2.66-.62-2.8.76-.87,9.19,1.07,18.86,6.29,26.57,4.72,6.97,12.07,12.32,20.38,14,5.43,1.1,11.18.09,16.46,1.97,1.82.65,2.61-2.25.8-2.89h0v-.02Z" style="fill: #fff; stroke: #fff; stroke-linecap: round; stroke-linejoin: round; stroke-width: 2px;"/>
    <path d="M87.03,696.25c-7.06,2.8-10.97,9.45-17.05,13.6-3.52,2.4-7.63,3.56-11.78,4.3-2.1.37-4.21.66-6.33.9-1.69.19-3.81.47-5.19-.75s-3.57.84-2.12,2.12c3.22,2.85,8.06,1.59,11.89,1.03,4.47-.65,8.95-1.62,12.96-3.76,3.56-1.9,6.42-4.77,9.25-7.6s5.53-5.51,9.16-6.95c1.77-.7,1-3.61-.8-2.89h.01Z" style="fill: #fff; stroke: #fff; stroke-linecap: round; stroke-linejoin: round; stroke-width: 2px;"/>
    <path d="M86.95,695.45c-5.74.48-10.78-2.94-15.84-5.12s-10.44-3.85-15.85-5.17c-10.79-2.62-21.83-4.02-32.63-6.59-6.13-1.46-12.2-3.31-17.92-5.97-1.74-.81-3.27,1.78-1.51,2.59,20.77,9.65,44.5,8.72,65.58,17.38,5.84,2.4,11.59,6.43,18.18,5.88,1.91-.16,1.93-3.16,0-3h-.01Z" style="fill: #fff; stroke: #fff; stroke-linecap: round; stroke-linejoin: round; stroke-width: 2px;"/>
    <path d="M85.98,740.72c3.09.32,6.18.45,9.01-1.03,1.23-.64,2.33-1.49,3.66-1.9s2.79-.51,4.15-.87c2.39-.63,4.72-2.33,5.1-4.93.18-1.2-.16-2.32-.94-3.25-.4-.48-.9-.86-1.27-1.37-.45-.61-.75-1.33-1.06-2.02-2.13-4.72-5.5-8.67-10.02-11.26s-10.65-4.08-15.75-1.94-8.43,7.19-13.9,8.11c-.62.11-1.12.84-1.1,1.45.09,2.95.27,6.04,1.69,8.7,1.3,2.43,3.6,3.88,6.13,4.79s5.12,1.24,7.44,2.47c2.46,1.31,4.09,4.04,7.23,3.4,1.89-.39,1.09-3.28-.8-2.89-1.01.21-2.05-1.01-2.74-1.58-.86-.72-1.77-1.35-2.79-1.82-2.1-.97-4.35-1.45-6.55-2.13s-4.11-1.59-5.23-3.58c-1.25-2.2-1.3-4.89-1.37-7.35l-1.1,1.45c4.28-.72,7.41-3.81,10.82-6.24,1.78-1.27,3.69-2.38,5.88-2.7,2.5-.37,5.11.15,7.47.99,4.16,1.48,7.86,4.42,10.26,8.12,1.28,1.97,1.91,4.38,3.41,6.2.58.7,1.62,1.26,1.31,2.29-.28.94-1.2,1.64-2.08,1.98-1.32.51-2.77.59-4.14.9s-2.58.88-3.78,1.59c-1.35.8-2.6,1.46-4.19,1.62s-3.16-.02-4.72-.18c-1.92-.2-1.9,2.8,0,3h0l-.03-.02Z" style="fill: #fff; stroke: #fff; stroke-linecap: round; stroke-linejoin: round; stroke-width: 2px;"/>
    <path d="M89.5,726.65c-1.05.08-1.96.41-2.93.79-.37.15-.75.29-1.13.39-.1.03-.2.05-.3.07-.25.06.2-.01-.06.01-.22.02-.46.03-.68,0,.34.04-.38-.14-.09-.02-.09-.04-.18-.09-.26-.14.18.12,0-.01-.04-.04-.19-.17-.09-.1-.04-.03-.06-.08-.11-.16-.15-.25s-.09-.17-.13-.26c.11.24-.06-.19-.06-.2-.26-.79-.47-1.78-.55-2.49-.05-.45-.07-.9-.04-1.35.02-.33.02-.13,0-.07.02-.1.05-.2.07-.3.07-.28.05-.15.02-.08,0,0,.25-.4.09-.19.12-.15.27-.29.41-.41-.18.16.25-.17.3-.2.37-.23.75-.44,1.14-.63.1-.05.2-.1.29-.15.24-.11-.16.05.09-.04.18-.07.36-.12.54-.16-.26.05.43.02.18,0,.11.01.22.05.32.08.01,0,.44.18.24.08.17.08.33.18.49.28.04.02.23.16.04.02.07.06.15.12.22.18.14.13.27.27.4.4.03.03.18.22.03.03.07.09.14.19.2.29.44.7.64,1.35.65,2.18.01.9-.23,1.86-.61,2.64-.35.7-.21,1.66.54,2.05.68.36,1.68.21,2.05-.54,1.13-2.31,1.41-4.92.27-7.28-1.04-2.17-3.52-3.88-5.98-3.26-1.06.26-2.18.89-3.06,1.54-1.16.86-1.8,1.96-1.94,3.4-.12,1.23.13,2.52.4,3.72s.64,2.4,1.55,3.23c1.14,1.04,2.72,1.15,4.16.8.58-.14,1.12-.38,1.67-.6s1.31-.47,1.67-.5c.78-.06,1.54-.65,1.5-1.5-.03-.76-.66-1.56-1.5-1.5h.02Z" style="fill: #fff; stroke: #fff; stroke-linecap: round; stroke-linejoin: round; stroke-width: 2px;"/>
    <path d="M104.57,683.31c-2.19.2-3.37-1.92-4.52-3.44-1.21-1.6-2.84-2.92-3.84-4.66s-1.44-4.02-1.97-6.03c-.59-2.22-1.13-4.45-1.51-6.72-.74-4.47.21-9.14-1.27-13.47-.73-2.12-1.62-4.19-2.45-6.28-.78-1.96-1.41-4.16-2.57-5.94-1.92-2.96-5.36-4.1-8.77-3.63-3.66.51-6.55,2.88-8.74,5.74-1.14,1.49-2.11,3.09-3,4.73-1.04,1.92-1.99,4.05-1.92,6.28.07,2.07,1.06,3.97,1.64,5.93.63,2.16,1.07,4.37,1.53,6.57.51,2.48.94,4.97,1,7.51.06,2.31-.09,4.61-.19,6.91-.19,4.63-.07,9.28,2.04,13.52.86,1.73,3.45.21,2.59-1.51-1.76-3.52-1.8-7.5-1.66-11.35s.4-7.97-.19-11.97-1.43-8.33-2.81-12.23c-.75-2.12-1.27-3.8-.46-6.01.65-1.78,1.72-3.48,2.75-5.06,1.83-2.82,4.36-5.61,7.87-6.09,1.39-.19,2.91-.02,4.14.7,1.66.96,2.29,2.82,2.96,4.51.79,2,1.59,4,2.38,6s1.59,3.93,1.69,6.07-.1,4.3.09,6.45.54,4.18.99,6.24c.94,4.28,1.76,9.24,4.7,12.66.68.79,1.44,1.52,2.11,2.33s1.21,1.66,1.85,2.45c1.36,1.68,3.28,3.02,5.53,2.81,1.91-.18,1.92-3.18,0-3h0v-.02Z" style="fill: #fff; stroke: #fff; stroke-linecap: round; stroke-linejoin: round; stroke-width: 2px;"/>
    <path d="M67.26,640.83c-2.96-1.64-6.75-2.48-9.73-.39-2.77,1.95-4.59,5.52-6.05,8.49-1.6,3.27-2.74,6.73-3.15,10.36-.44,3.92.32,7.79.92,11.65.63,4.06,1.01,8.48-1.04,12.22-.93,1.69,1.66,3.21,2.59,1.51,4.52-8.24-.64-17.18.59-25.82.6-4.23,2.36-8.2,4.57-11.82.99-1.61,2.11-3.7,3.92-4.51,1.92-.86,4.15-.06,5.87.89s3.2-1.65,1.51-2.59h0Z" style="fill: #fff; stroke: #fff; stroke-linecap: round; stroke-linejoin: round; stroke-width: 2px;"/>
    <path d="M71.71,692.57c1.93,0,1.93-3,0-3s-1.93,3,0,3h0Z" style="fill: #fff; stroke: #fff; stroke-linecap: round; stroke-linejoin: round; stroke-width: 2px;"/>
    <path d="M80.72,634.59c-.03-.16-.05-.33-.08-.49-.06-.32.05.49.01.1-.01-.11-.03-.22-.04-.33-.06-.53-.11-1.06-.15-1.58-.13-1.53-.22-3.06-.3-4.59-.26-4.85-.42-9.7-.57-14.55-.22-7.01-.38-14.03-.53-21.04-.19-8.92-.35-17.83-.5-26.75-.17-10.55-.33-21.11-.47-31.66-.16-11.93-.3-23.86-.43-35.79-.14-13-.27-26.01-.39-39.01-.13-13.85-.25-27.7-.36-41.55-.12-14.48-.22-28.96-.32-43.43-.1-14.8-.2-29.61-.29-44.41s-.17-29.74-.25-44.6c-.08-14.67-.15-29.34-.21-44.01-.06-14.21-.12-28.41-.18-42.62s-.1-26.96-.14-40.45c-.04-12.49-.07-24.99-.1-37.48-.03-11.21-.05-22.43-.06-33.64-.01-9.71-.02-19.42-.02-29.13,0-7.97,0-15.93.02-23.9.01-5.93.03-11.86.06-17.79.02-3.63.04-7.26.1-10.89.01-.85.03-1.7.06-2.55.08-1.93-2.92-1.93-3,0-.1,2.42-.09,4.85-.12,7.28-.04,4.85-.06,9.7-.08,14.56-.02,7.02-.03,14.03-.04,21.05v26.75c0,10.56.02,21.11.04,31.67.02,11.93.05,23.86.08,35.79.04,13.04.08,26.09.12,39.13.05,13.89.1,27.79.16,41.68s.13,28.96.2,43.44c.07,14.81.15,29.61.23,44.42s.17,29.74.27,44.6c.1,14.67.2,29.33.31,44,.11,14.2.22,28.41.34,42.61s.24,26.95.38,40.43c.13,12.49.26,24.97.41,37.46.14,11.24.28,22.47.45,33.7.14,9.72.3,19.44.48,29.16.15,7.94.31,15.89.52,23.83.15,5.9.32,11.81.55,17.71.14,3.6.28,7.21.59,10.8.08.96.17,1.93.34,2.88.35,1.9,3.24,1.09,2.89-.8h.02Z" style="fill: #fff; stroke: #fff; stroke-linecap: round; stroke-linejoin: round; stroke-width: 2px;"/>
  </g>
</svg>