<?xml version="1.0" encoding="UTF-8"?>
<svg id="uuid-ce8dff1b-4a4b-4dd5-8468-4c049b8c1b5f" data-name="Layer 2" xmlns="http://www.w3.org/2000/svg" viewBox="0 0 240.46 238.62">
  <g id="uuid-fadd8d41-3afe-4d11-89c7-b5173f14c389" data-name="Layer 2">
    <path d="M239.46,14.82c-1.52,32.74-12,65.4-12,65.4,0,0,4.87,43.82-4.87,61.08s-37.65,22.31-37.65,22.31l-.81,7.59-4.64,4.13-2.04,4.92-.48,5.72-2.7,6.66,1.7,6.41,1.32,6.79.3,4,.08,7.36,19.19,3.16-9.34,2.07,16.75,7.05-25.55-4.58-9.93,11.49,1.01-11.7-9.8,1.43,12.08-7.11-1.48-3.57-.75-6.84-3.92-11.15v-5.22l-1.95-5.74-.29-5.22.29-4.65s3.88-10.28-7.97-2.54c-11.85,7.73-102.83-.71-102.83-.71l-2.36,3.25-3.07,2.89-.94,3.87-.9,5.9-1.01,5.68-1.2,3.44,3.4,7.5-.4,5.87,3.06,7.04,15.86,3.44-7.94,1.88,15.11,6.33-24.04-4.62-10.54,11.77,1.01-11.7-10.4,1.66,12.68-7.34-1.66-3.91v-3.92l-1.65-3.14-.24-4.8-2.13-4.74.52-3.28-1.73-3.67-1.58-4.77-.89-5.66,1.78-8.29S-3.98,166.39,1.55,134.21C7.08,102.04,11.6,41.72,11.6,41.72L25.45,1l214.01,13.82Z" style="stroke: #fff; stroke-linecap: round; stroke-linejoin: round; stroke-width: 2px;"/>
    <polyline points="33.39 177.74 33.93 183.64 36.63 189.64 38.16 187.04 39.77 189.98 41.44 186.59 42.99 189.31 43.59 184.74 45.24 188.36 47.75 179.51" style="stroke: #fff; stroke-linecap: round; stroke-linejoin: round; stroke-width: 2px;"/>
    <polyline points="164.37 178.33 164.3 183.64 167 189.64 168.53 187.04 170.13 189.98 171.81 186.59 173.35 189.31 173.96 184.74 175.61 188.36 176.57 181.18 179.49 175.32" style="stroke: #fff; stroke-linecap: round; stroke-linejoin: round; stroke-width: 2px;"/>
  </g>
</svg>