<?xml version="1.0" encoding="UTF-8"?>
<svg id="uuid-42e874ba-f7bb-4056-b697-a7cbf77c52c8" data-name="Layer 2" xmlns="http://www.w3.org/2000/svg" viewBox="0 0 127.83 161.22">
  <g id="uuid-54b300b5-4d45-40a9-b483-7ec8518ebc7a" data-name="Layer 2">
    <path d="M64.64,79.65c-9.39-11.95-18.78-23.9-28.17-35.85-.39-.5-1.31-.56-1.82-.23-6.18,3.95-14.17,8.7-21.76,6.17-6-2-8.93-8.27-9.67-14.15C1.49,21.84,9.74,5.76,24.2,3.25c6.71-1.17,13.65,1.25,17.47,7.03,1.75,2.65,2.79,5.77,2.68,8.96-.12,3.63-2.57,6.79-1.96,10.48.31,1.88,1.27,3.58,2.21,5.2,1.17,2.01,2.34,4.01,3.51,6.02,2.3,3.94,4.6,7.88,6.9,11.82s4.6,7.88,6.9,11.82c1.17,2.01,2.34,4.01,3.51,6.02,1.03,1.76,1.96,3.64,3.23,5.24,2.56,3.23,6.83,3.11,10.58,3.52,4.46.49,8.9,1.06,13.34,1.71,8.81,1.3,17.59,2.9,26.29,4.8,2.22.48,4.43.99,6.63,1.51l-1.1-1.45c.11,18.26.22,36.52.33,54.77.03,5.15.06,10.29.09,15.44l1.1-1.45c-18.87,2.55-37.93,3.71-56.97,3.52l1.45,1.1c-2.15-11.91-4.13-23.86-5.91-35.83-.89-5.98-1.73-11.96-2.53-17.95-.37-2.76-.68-5.53-1.09-8.29-.31-2.09-.75-4.16-.88-6.27-.12-1.98.07-3.95,1.22-5.62.92-1.34,2.33-2.35,3.42-3.57,1.28-1.44-.83-3.57-2.12-2.12-.98,1.1-2.14,2-3.08,3.12-1.35,1.58-2.13,3.44-2.37,5.49s.03,4.04.33,6.04c.38,2.52.78,5.02,1.1,7.55,1.61,12.47,3.42,24.9,5.43,37.31,1.13,6.99,2.33,13.97,3.59,20.94.12.64.83,1.1,1.45,1.1,19.32.19,38.62-1.04,57.76-3.62.64-.09,1.1-.85,1.1-1.45-.11-18.26-.22-36.52-.33-54.77-.03-5.15-.06-10.29-.09-15.44,0-.64-.46-1.3-1.1-1.45-9.14-2.16-18.36-4-27.64-5.49-4.69-.76-9.39-1.42-14.11-2.01-2.33-.29-4.66-.56-7-.81-1.92-.2-4.32-.16-5.87-1.48s-2.42-3.5-3.4-5.18c-1.21-2.08-2.42-4.15-3.64-6.23-2.42-4.15-4.85-8.31-7.27-12.46s-4.85-8.31-7.27-12.46c-1.18-2.01-2.4-4.01-3.52-6.05-1.06-1.94-1.6-3.74-.94-5.91.55-1.81,1.31-3.5,1.57-5.39.24-1.74.19-3.47-.11-5.2-.57-3.32-2.16-6.43-4.31-9C38.04,1.11,30.54-.89,23.4.36,8.17,3.03-.91,19.46.07,34.06c.43,6.39,2.83,13.09,8.35,16.8,6.94,4.66,15.54,2.11,22.32-1.49,1.86-.99,3.65-2.08,5.42-3.21l-1.82-.23c9.39,11.95,18.78,23.9,28.17,35.85,1.19,1.52,3.3-.62,2.12-2.12Z" style="fill: #fff;"/>
    <path d="M78.51,78.79c1.93,0,1.93-3,0-3s-1.93,3,0,3h0Z" style="fill: #fff;"/>
    <path d="M80.68,76.46c-.34-19.25,5.55-38.61,16.83-54.26,2.36-3.28,5.52-6.75,9.83-7.02,3.99-.24,7.71,1.9,10.33,4.77,6.57,7.15,4.99,18.25,4.18,27.07-1.15,12.42-2.29,24.84-3.44,37.25-.18,1.92,2.82,1.91,3,0,1.09-11.84,2.19-23.68,3.28-35.53.89-9.68,2.63-21.21-3.73-29.51-2.56-3.34-6.31-6.09-10.52-6.84-4.56-.81-8.73.86-12,4.05-3.46,3.38-6.1,7.8-8.48,11.98-2.56,4.48-4.73,9.19-6.52,14.03-4.01,10.85-5.97,22.44-5.77,34,.03,1.93,3.03,1.93,3,0h0Z" style="fill: #fff;"/>
    <path d="M13.02,22.6c1.93,0,1.93-3,0-3s-1.93,3,0,3h0Z" style="fill: #fff;"/>
    <path d="M23.89,17.17c1.93,0,1.93-3,0-3s-1.93,3,0,3h0Z" style="fill: #fff;"/>
    <path d="M37.47,20.3c1.93,0,1.93-3,0-3s-1.93,3,0,3h0Z" style="fill: #fff;"/>
    <path d="M11.14,40.16c1.93,0,1.93-3,0-3s-1.93,3,0,3h0Z" style="fill: #fff;"/>
    <path d="M25.56,42.45c1.93,0,1.93-3,0-3s-1.93,3,0,3h0Z" style="fill: #fff;"/>
    <path d="M37.06,32.21c1.93,0,1.93-3,0-3s-1.93,3,0,3h0Z" style="fill: #fff;"/>
    <path d="M17.2,30.75c1.93,0,1.93-3,0-3s-1.93,3,0,3h0Z" style="fill: #fff;"/>
    <path d="M28.07,26.15c1.93,0,1.93-3,0-3s-1.93,3,0,3h0Z" style="fill: #fff;"/>
    <path d="M25.35,33.68c1.93,0,1.93-3,0-3s-1.93,3,0,3h0Z" style="fill: #fff;"/>
  </g>
</svg>