<?xml version="1.0" encoding="UTF-8"?>
<svg id="uuid-18958bf8-f8b2-49f3-a7a3-ee1c5404416a" data-name="Layer 2" xmlns="http://www.w3.org/2000/svg" viewBox="0 0 483.12 570.88">
  <g id="uuid-5bd39c95-191d-4562-b7a1-8c10f9f29304" data-name="Layer 1">
    <path d="M95.54,228.08c8.52-10.88,17.01-21.77,25.55-32.63,1.56-1.99,3.27-4.2,5.61-5.3,2.78-1.31,5.56,0,7.89,1.61,4.4,3.05,8.13,7.16,10.98,11.67,3.27,5.18,5.46,11.06,6.23,17.14l1.5-1.5c-15.98-.91-31.59,2.88-47.07,6.29-4.53,1-9.07,1.95-13.63,2.75-1.24.22-1.48,2.2-.36,2.74,3.17,1.53,6.49,2.51,9.95,3.18,3.25.63,6.54,1.11,9.7,2.12s6.16,2.65,9.14,4.16,5.91,3.09,8.74,4.85c5.37,3.33,10.57,7.38,14.16,12.64,3.38,4.96,5.5,10.94,5.24,16.99-.23,5.41-2.67,10.53-7,13.84-3.99,3.06-9.1,4.46-14.08,4.45-11.77-.03-20.93-8.42-25.8-18.57-3.17-6.61-4.21-13.89-5.73-20.99-1.69-7.93-3.01-15.85-2.07-23.97h-3c-1.2,14.44-4.98,28.74-11.69,41.62s-15.9,23.73-27.43,32.07c-2.98,2.16-6.09,4.13-9.31,5.92s-6.68,3.78-10.39,4.35-6.93-1.22-7.45-5.14c-.47-3.52.79-7.11,1.9-10.39,4.96-14.64,13.28-28.25,23.48-39.82s22.38-21.4,36.66-26.89c1.67-.64,3.36-1.21,5.07-1.72,1.61-.48,1.32-2.94-.4-2.95-15.3-.04-30.29,3.7-45.35,5.84-7.38,1.05-14.78,1.59-22.24,1.36-6.7-.21-14.14-1.26-18.59-6.84-1.82-2.28-3.03-5.23-2.72-8.19.33-3.1,2.47-5.58,4.84-7.43,2.77-2.16,5.99-3.84,9.11-5.45,3.4-1.76,6.89-3.33,10.47-4.7,7.04-2.7,14.36-4.65,21.81-5.81,6.4-1,13.94-1.78,19.38,2.49,9.34,7.33,13.28,19.13,20.03,28.5.69.96,1.42,1.9,2.21,2.79,1.11,1.26,3.37-.43,2.36-1.82-8.02-10.92-14.58-23.01-18.58-35.99-1.98-6.43-3.34-13.06-3.85-19.77-.48-6.35-.54-13.1,1.36-19.24,1.66-5.36,5.19-9.92,10.81-11.3,2.36-.58,5.02-.55,7.22.57,2.42,1.23,3.89,3.54,4.6,6.11.8,2.88.79,5.91.76,8.87-.03,3.16-.15,6.31-.32,9.46-.37,6.75-.98,13.48-1.62,20.21-.72,7.58-1.5,15.16-2.09,22.75-.28,3.62-.52,7.25-.67,10.88-.11,2.63,0,5.24-.37,7.81l2.89.8c2.64-18.62,6.74-37.07,13.09-54.79,6.12-17.05,14.39-33.41,25.27-47.93,9.85-13.15,21.87-24.82,35.62-33.84,14.71-9.65,31.06-15.75,48.46-18.33,9.95-1.48,20.03-1.95,30.08-2.2s20.84-.35,31.26-.45c21-.21,42-.26,63-.27,5.31,0,10.62,0,15.94,0,4.6,0,9.22-.11,13.81.19,4.1.27,8.33.9,12.08,2.66s6.9,4.79,9.18,8.41,3.95,7.74,5.65,11.73c2.04,4.83,4.09,9.66,6.13,14.48,4.12,9.73,8.24,19.47,12.37,29.2s8.24,19.47,12.37,29.2c3.8,8.97,9.07,18.39,7.21,28.44-.86,4.62-2.64,9.04-4.55,13.31-1.64,3.69-3.46,7.29-5.43,10.81-3.96,7.07-8.55,13.78-13.66,20.07-10.28,12.66-22.52,23.68-35.79,33.13-13.76,9.79-28.62,17.91-44.04,24.74-17.98,7.96-36.65,14.23-55.46,19.91-18.77,5.67-37.72,10.74-56.52,16.31-17.46,5.17-34.8,10.8-51.67,17.68-16.68,6.8-32.93,14.79-48.01,24.69-14.43,9.48-27.66,20.7-39.07,33.67s-20.14,26.13-27.76,40.72c-7.67,14.68-13.74,30.18-18.35,46.08s-7.84,32.62-9.71,49.28c-.9,7.97-1.48,15.97-1.77,23.99-.06,1.65,2.67,2.09,2.95.4,1.5-9.31,3.01-18.62,4.51-27.93,2.38-14.73,4.76-29.47,7.14-44.2.55-3.39,1.09-6.77,1.64-10.16.11-.7-.08-1.3-.69-1.69-9.24-6-16.77-14.4-21.94-24.12-2.58-4.85-4.54-10.01-5.83-15.36-.65-2.69-1.21-5.46-1.39-8.23-.08-1.17-.11-2.42.32-3.53.52-1.38,1.7-1.96,3.08-2.29,4.66-1.11,10.14-1.61,14.85-.62,2.24.47,4.43,1.35,6.11,2.96,2.02,1.94,2.88,4.58,3.47,7.25.65,2.94.71,5.81.61,9.07-.13,4.08-.43,8.15-.73,12.22-.34,4.73-.72,9.46-.95,14.19-.16,3.33-.42,6.83.2,10.14.25,1.36,2.09,1.34,2.74.36,2.02-3.05,4.04-6.09,6.06-9.14,4.81-7.25,9.61-14.49,14.42-21.74,5.86-8.83,11.72-17.66,17.58-26.5,5.05-7.61,10.09-15.21,15.14-22.82l5.01-7.55c.76-1.15,1.75-2.32,2.36-3.56.03-.06.07-.11.11-.16l-1.69.69c9.61,3.91,19.55,7.94,30.08,8.19,4.57.11,9.24-.49,13.55-2.02,3.95-1.4,8.43-3.69,11.01-7.11,2.94-3.88-.08-7.91-3.6-9.96-2.69-1.56-5.59-2.21-8.68-2.13-7,.18-13.91,2.64-20.5,4.79-3.95,1.29-7.88,2.63-11.89,3.73-3.1.85-6.32,1.66-9.56,1.57l.76,2.8c2.98-1.29,5.95-2.58,8.93-3.87,7.77-3.37,15.54-6.74,23.32-10.12,10.84-4.7,21.68-9.4,32.51-14.11,12.17-5.28,24.34-10.56,36.51-15.84s23.55-10.22,35.32-15.32c9.62-4.17,19.24-8.35,28.86-12.52,5.79-2.51,11.57-5.02,17.36-7.53.89-.38,1.94-.69,2.77-1.2.23-.14.42-.32.56-.55.35-.56.39-1.4.53-2.04.19-.85.37-1.7.55-2.55.61-2.88,1.17-5.76,1.67-8.66,1.03-5.91,1.85-11.86,2.44-17.83,1.19-12.1,1.42-24.35.15-36.46-.3-2.88-.69-5.75-1.17-8.61-.4-2.38-.74-5.11-2.5-6.92-4.23-4.35-9.72.71-12.36,4.18-6.46,8.47-9.01,19.38-8.88,29.9.07,5.61.89,11.21,2.49,16.59,1.72,5.76,4.17,11.28,6.78,16.68,2.53,5.25,5.24,10.42,7.7,15.71.37.8,1.37.83,2.05.54,2.79-1.18,5.58-2.37,8.36-3.55,6.69-2.84,13.39-5.68,20.08-8.53,8.1-3.44,16.2-6.88,24.29-10.31,7-2.97,14-5.94,21-8.91l6.87-2.91c1.07-.46,2.3-.82,3.31-1.41.05-.03.1-.04.15-.06h-1.51c7.84,4.86,15.53,9.98,23.52,14.58,3.94,2.27,7.96,4.41,12.1,6.3,3.9,1.78,8.19,3.8,12.59,3.3,3.36-.38,6.72-2.31,8.05-5.52s.08-6.59-2.3-8.93c-2.55-2.51-5.95-3.99-9.27-5.2-4.24-1.54-8.64-2.61-13.08-3.38-10.1-1.75-20.38-2.1-30.47-3.89l.9,2.2c1.07-2.31,2.13-4.62,3.2-6.92,2.76-5.98,5.52-11.96,8.28-17.95,3.76-8.14,7.52-16.28,11.27-24.42,4.11-8.9,8.21-17.79,12.32-26.69,3.74-8.11,7.49-16.22,11.23-24.33l8.2-17.76,2.3-4.97c.2-.43.41-.85.59-1.28.04-.1.09-.22.14-.31.01-.02.02-.04.03-.06-.37.59.38-.15.65-.34,2.49-1.74,5.12-2.96,8.12-3.45,2.79-.46,5.63-.54,8.42-1.06,4.15-.76,8.21-2.11,12.31-3.11,4.32-1.05,8.64-2.16,12.68-4.02,6.34-2.91,12.65-8.36,13.71-15.63.9-6.17-2.29-13.34-8.52-15.35-7.92-2.56-14.63,4.54-19.54,9.66-6.75,7.03-13.5,14.07-20.25,21.1l-9.95,10.37,2.36.3c-4.22-6.58-8.45-13.16-12.67-19.75-8.19-12.77-16.38-25.53-24.57-38.3-5.61-8.74-11.22-17.48-16.83-26.23-.19-.3-.41-.6-.59-.91-.03-.06-.09-.11-.11-.17-.07-.19-.32.87.24.31.14-.14.12-1.07.15-1.28.07-.57.14-1.14.2-1.71.82-6.75,1.75-13.48,2.33-20.25,1.11-13.11.8-26.75-4.93-38.85-1.13-2.38-2.54-5.88-5.36-6.67-3.17-.89-5.61,2.32-7.12,4.61-3.21,4.86-4.11,10.89-3.9,16.62.24,6.36,1.76,12.6,3.51,18.69,2.03,7.03,4.58,13.91,7.59,20.58,1.45,3.21,3.01,6.36,4.68,9.45l1.3-2.26c-7.37.03-14.75.07-22.12.1l-30.47.14c-.89,0-1.79-.03-2.67.01-1.06.06-2.13.64-3.12,1.03-2.23.87-4.44,1.81-6.61,2.81-8.73,4.03-17.13,9.25-23.87,16.17-6.08,6.24-13.16,15.72-9.15,24.81,3.15,7.13,11.87,10.89,19.34,9.85,8.83-1.23,15.72-8.32,19.81-15.81,4.92-9.01,6.95-19.7,6.11-29.9-.22-2.64-.63-5.27-1.21-7.86-.42-1.88-3.32-1.09-2.89.8,2.23,9.88,1.52,20.31-2.03,29.8-2.92,7.8-8.28,15.89-16.38,18.98-6.66,2.55-15.24.64-19.22-5.63-5.04-7.93,2.19-17.18,7.61-22.78,6.41-6.62,14.37-11.59,22.67-15.5,2.06-.97,4.14-1.87,6.26-2.71.85-.34,1.94-.93,2.69-1.07s1.71,0,2.5-.01l28.42-.13c7.97-.04,15.96.08,23.92-.11.14,0,.28,0,.42,0,1.17,0,1.83-1.26,1.3-2.26-6.57-12.22-11.8-25.56-14.42-39.22-1.07-5.61-1.56-11.61-.07-17.2.71-2.66,1.9-5.22,3.68-7.35.74-.89,1.92-2.41,3.16-1.51,1.14.82,1.8,2.5,2.41,3.7,5.95,11.63,6.26,25.05,5.24,37.8-.53,6.63-1.43,13.23-2.24,19.83-.11.86-.21,1.71-.31,2.57-.08.67-.3,1.46-.25,2.13.03.31.11.56.25.83.11.23.28.44.42.66,5.19,8.09,10.38,16.18,15.57,24.26,8.02,12.5,16.04,25,24.06,37.51,4.82,7.51,9.54,15.09,14.46,22.53.08.12.15.24.23.36.51.79,1.66,1.03,2.36.3,6.63-6.91,13.27-13.83,19.9-20.74l9.95-10.37c2.77-2.88,5.51-5.95,9-7.98,2.93-1.7,6.51-2.37,9.54-.53,2.55,1.55,4.1,4.39,4.68,7.25,1.45,7.1-4.1,13.09-9.83,16.32-3.62,2.04-7.64,3.23-11.65,4.25s-8.4,2.22-12.6,3.26c-5.58,1.38-11.48.85-16.7,3.54-2.01,1.03-4.14,2.09-5.1,4.17l-1.92,4.17-7.48,16.2c-3.57,7.74-7.14,15.47-10.71,23.21-4.01,8.69-8.02,17.37-12.03,26.06l-11.42,24.75c-2.97,6.43-5.93,12.85-8.9,19.28-1.48,3.21-2.98,6.42-4.45,9.64-.07.15-.13.29-.2.44-.37.79-.14,2.02.9,2.2,12.16,2.15,24.67,2.2,36.69,5.18,3,.75,6,1.65,8.85,2.84,2.13.89,4.29,2.03,5.95,3.66,1.44,1.42,2.45,3.36,1.76,5.4s-2.88,3.4-4.95,3.85c-2.94.64-6.05-.46-8.73-1.57-2.92-1.21-5.78-2.6-8.58-4.06-5.52-2.87-10.84-6.09-16.11-9.39-2.7-1.69-5.38-3.4-8.07-5.11-1.23-.78-2.47-1.56-3.71-2.34-1.08-.68-2.15-1.7-3.46-1.21-.47.18-.94.4-1.4.6-8.29,3.52-16.58,7.04-24.87,10.56-12.04,5.11-24.09,10.23-36.13,15.34-4.71,2-9.43,4-14.14,6.01-2.37,1.01-4.9,1.87-7.19,3.05-.1.05-.22.09-.33.14l2.05.54c-4.96-10.67-11.09-20.93-14.36-32.31-2.91-10.11-3.1-21.33.05-31.41,1.51-4.83,3.88-9.53,7.22-13.36,1.25-1.44,3.68-3.82,5.82-2.93s2.31,4.66,2.63,6.61c1.89,11.46,2.17,23.18,1.54,34.77-.72,13.13-2.69,26.18-5.64,38.99l.69-.9c-1.65.72-3.31,1.43-4.96,2.15l-13.5,5.86c-6.66,2.89-13.31,5.78-19.97,8.66-8.12,3.52-16.24,7.05-24.36,10.57-8.9,3.86-17.79,7.72-26.69,11.58s-17.96,7.79-26.94,11.69c-8.37,3.63-16.75,7.27-25.12,10.9-7.08,3.07-14.16,6.14-21.23,9.21-5.09,2.21-10.18,4.42-15.27,6.63-2.41,1.04-4.88,2-7.24,3.14-.1.05-.21.09-.31.14-1.45.63-.6,2.75.76,2.8,5.83.18,11.77-2,17.24-3.77,6.51-2.1,13-4.49,19.74-5.75,2.55-.48,5.28-.83,7.87-.43,1.4.22,2.72.72,3.96,1.4,1.4.77,3.26,1.97,3.61,3.66.41,1.95-1.82,3.48-3.17,4.48-1.65,1.23-3.47,2.26-5.37,3.07-3.85,1.63-8.06,2.38-12.23,2.48-10.93.26-21.32-4.04-31.25-8.08-.63-.26-1.36.18-1.69.69-2.02,3.05-4.04,6.09-6.06,9.14-4.81,7.25-9.61,14.49-14.42,21.74-5.86,8.83-11.72,17.66-17.58,26.5-5.05,7.61-10.09,15.21-15.14,22.82l-5.01,7.55c-.76,1.15-1.75,2.32-2.36,3.56-.03.06-.07.11-.11.16l2.74.36c-.16-.88-.22-2.35-.24-3.59-.02-1.83.05-3.66.13-5.49.21-4.52.56-9.03.89-13.54s.65-8.75.79-13.14c.11-3.51,0-6.84-.8-10.28-.68-2.92-1.79-5.77-3.92-7.94-1.74-1.77-4.01-2.96-6.39-3.64-5.11-1.46-10.64-.88-15.81-.05-2.96.47-5.78,1.39-6.96,4.41-1.03,2.66-.5,5.69-.09,8.42.89,5.82,2.61,11.47,4.99,16.85,5.32,12.05,14.15,22.49,25.2,29.67l-.69-1.69c-1.5,9.31-3.01,18.62-4.51,27.93-2.38,14.73-4.76,29.47-7.14,44.2-.55,3.39-1.09,6.77-1.64,10.16l2.95.4c.62-16.86,2.53-33.66,5.9-50.19,3.35-16.44,8.11-32.6,14.46-48.13,6.3-15.4,14.23-30.17,23.84-43.77,9.69-13.71,21.17-26.13,34.17-36.77,14.05-11.49,29.74-20.86,46.08-28.71,16.43-7.9,33.56-14.25,50.89-19.86,18.48-5.98,37.23-11.09,55.91-16.43,18.97-5.42,37.89-11.07,56.36-18.04,16.96-6.4,33.55-13.9,49.08-23.29,14.12-8.53,27.43-18.55,39.12-30.22,11.57-11.55,21.56-24.79,28.81-39.47,3.91-7.91,8.19-16.89,7.55-25.93-.35-4.94-2.1-9.58-4-14.1-2.03-4.84-4.1-9.68-6.14-14.51-8.31-19.62-16.62-39.24-24.93-58.86-1.96-4.64-3.86-9.31-5.92-13.91-1.74-3.89-3.74-7.71-6.6-10.91-5.81-6.52-14.45-8.22-22.8-8.54-10.13-.4-20.33-.09-30.47-.08s-21.25.03-31.87.07c-20.99.09-42.01.09-63,.74-19.27.6-38.61,2.62-56.55,10.13-15.26,6.38-29.05,15.91-40.89,27.42s-22.58,26.24-30.54,41.57c-8.68,16.71-14.82,34.67-19.07,52.99-2.08,8.95-3.71,18-5,27.1-.11.81.2,1.6,1.05,1.85.7.2,1.73-.25,1.85-1.05.34-2.33.34-4.63.42-6.99.12-3.46.32-6.91.57-10.37.52-7.28,1.25-14.54,1.95-21.8s1.38-14.41,1.82-21.63c.2-3.25.34-6.5.4-9.76s.08-6.43-.52-9.58c-1.13-5.95-5.37-10.46-11.59-10.7-5.82-.23-11.25,2.99-14.38,7.78-3.61,5.52-4.39,12.41-4.48,18.85-.1,7.12.77,14.26,2.39,21.2,3.67,15.7,11.18,30.4,20.69,43.35l2.36-1.82c-3.73-4.24-6.27-9.49-9.1-14.33-3.2-5.48-6.64-11.03-11.32-15.39-2.5-2.33-5.27-4.13-8.61-4.97s-7.01-.85-10.5-.52c-7.9.76-15.75,2.6-23.25,5.17s-14.71,5.84-21.35,10.02c-2.8,1.76-5.54,3.87-7.25,6.77s-2.04,6.16-1.18,9.31c1.84,6.78,7.99,11.08,14.55,12.63,3.76.89,7.66,1.07,11.51,1.12s7.71-.07,11.56-.4c16.11-1.42,31.84-5.74,47.99-6.67,1.96-.11,3.92-.17,5.88-.16l-.4-2.95c-15.39,4.6-28.89,14.38-39.87,25.92s-20.48,26.02-26.28,41.37c-2.29,6.08-6.24,16.06.24,20.97,3.3,2.5,7.74,1.86,11.38.51s7.21-3.38,10.58-5.42c12.93-7.83,23.78-18.78,31.63-31.68s12.69-27.8,14.66-42.89c.26-1.96.46-3.92.63-5.89s-2.78-1.88-3,0c-.89,7.67.19,15.25,1.75,22.76.79,3.8,1.63,7.59,2.38,11.4.61,3.14,1.51,6.23,2.71,9.2,4.54,11.24,13.61,21.29,26.15,22.92,11.09,1.44,23.12-3.87,26.67-15.07,1.91-6.03,1.04-12.68-1.37-18.44-2.6-6.2-7-11.3-12.26-15.42s-11.71-7.59-17.96-10.69c-3.29-1.63-6.57-3.04-10.16-3.86-3.41-.77-6.89-1.19-10.27-2.11-1.85-.51-3.65-1.16-5.38-2l-.36,2.74c15.48-2.72,30.66-7.37,46.36-8.71,4.51-.38,9.03-.48,13.55-.22.74.04,1.6-.73,1.5-1.5-1.48-11.68-7.47-22.64-16.76-29.96-2.48-1.95-5.25-3.86-8.51-4.02-2.8-.14-5.31,1.25-7.32,3.09-2.42,2.21-4.31,5.02-6.32,7.58-2.26,2.88-4.52,5.77-6.77,8.65-5.23,6.68-10.47,13.37-15.7,20.05-1.18,1.5.93,3.64,2.12,2.12h0Z" style="fill: #fff;"/>
  </g>
</svg>