<?xml version="1.0" encoding="UTF-8"?>
<svg id="uuid-937be392-e5c3-4c19-8337-2dc330c27f79" data-name="uuid-18958bf8-f8b2-49f3-a7a3-ee1c5404416a" xmlns="http://www.w3.org/2000/svg" viewBox="0 0 343.96 433.88">
  <g id="uuid-744f34e5-1b84-425b-94a1-c8638c8e7f4f" data-name="uuid-54b300b5-4d45-40a9-b483-7ec8518ebc7a">
    <path d="M173.96,214.34c-25.27-32.16-50.54-64.32-75.81-96.48-1.05-1.35-3.53-1.51-4.9-.62-16.63,10.63-38.13,23.41-58.56,16.6-16.15-5.38-24.03-22.26-26.02-38.08C4.02,58.77,26.22,15.49,65.13,8.74c18.06-3.15,36.73,3.36,47.01,18.92,4.71,7.13,7.51,15.53,7.21,24.11-.32,9.77-6.92,18.27-5.27,28.2.83,5.06,3.42,9.63,5.95,13.99,3.15,5.41,6.3,10.79,9.45,16.2,6.19,10.6,12.38,21.21,18.57,31.81,6.19,10.6,12.38,21.21,18.57,31.81,3.15,5.41,6.3,10.79,9.45,16.2,2.77,4.74,5.27,9.8,8.69,14.1,6.89,8.69,18.38,8.37,28.47,9.47,12,1.32,23.95,2.85,35.9,4.6,23.71,3.5,47.34,7.8,70.75,12.92,5.97,1.29,11.92,2.66,17.84,4.06l-2.96-3.9c.3,49.14.59,98.28.89,147.39.08,13.86.16,27.69.24,41.55l2.96-3.9c-50.78,6.86-102.07,9.98-153.31,9.47l3.9,2.96c-5.79-32.05-11.11-64.21-15.9-96.42-2.4-16.09-4.66-32.19-6.81-48.31-1-7.43-1.83-14.88-2.93-22.31-.83-5.62-2.02-11.2-2.37-16.87-.32-5.33.19-10.63,3.28-15.12,2.48-3.61,6.27-6.32,9.2-9.61,3.44-3.88-2.23-9.61-5.71-5.71-2.64,2.96-5.76,5.38-8.29,8.4-3.63,4.25-5.73,9.26-6.38,14.77s.08,10.87.89,16.25c1.02,6.78,2.1,13.51,2.96,20.32,4.33,33.56,9.2,67.01,14.61,100.41,3.04,18.81,6.27,37.59,9.66,56.35.32,1.72,2.23,2.96,3.9,2.96,51.99.51,103.93-2.8,155.44-9.74,1.72-.24,2.96-2.29,2.96-3.9-.3-49.14-.59-98.28-.89-147.39-.08-13.86-.16-27.69-.24-41.55,0-1.72-1.24-3.5-2.96-3.9-24.6-5.81-49.41-10.76-74.38-14.77-12.62-2.05-25.27-3.82-37.97-5.41-6.27-.78-12.54-1.51-18.84-2.18-5.17-.54-11.63-.43-15.8-3.98s-6.51-9.42-9.15-13.94c-3.26-5.6-6.51-11.17-9.8-16.77-6.51-11.17-13.05-22.36-19.56-33.53-6.51-11.17-13.05-22.36-19.56-33.53-3.18-5.41-6.46-10.79-9.47-16.28-2.85-5.22-4.31-10.06-2.53-15.9,1.48-4.87,3.53-9.42,4.23-14.51.65-4.68.51-9.34-.3-13.99-1.53-8.93-5.81-17.3-11.6-24.22C102.38,2.98,82.19-2.4,62.98.96,21.99,8.15-2.44,52.36.19,91.65c1.16,17.2,7.62,35.23,22.47,45.21,18.68,12.54,41.82,5.68,60.07-4.01,5.01-2.66,9.82-5.6,14.59-8.64l-4.9-.62c25.27,32.16,50.54,64.32,75.81,96.48,3.2,4.09,8.88-1.67,5.71-5.71l.03-.03Z" style="fill: #fff;"/>
    <path d="M211.29,212.03c5.19,0,5.19-8.07,0-8.07s-5.19,8.07,0,8.07h0Z" style="fill: #fff;"/>
    <path d="M217.13,205.76c-.91-51.8,14.94-103.9,45.29-146.02,6.35-8.83,14.85-18.17,26.45-18.89,10.74-.65,20.75,5.11,27.8,12.84,17.68,19.24,13.43,49.11,11.25,72.85-3.09,33.42-6.16,66.85-9.26,100.24-.48,5.17,7.59,5.14,8.07,0,2.93-31.86,5.89-63.73,8.83-95.62,2.4-26.05,7.08-57.08-10.04-79.41-6.89-8.99-16.98-16.39-28.31-18.41-12.27-2.18-23.49,2.31-32.29,10.9-9.31,9.1-16.42,20.99-22.82,32.24-6.89,12.06-12.73,24.73-17.55,37.76-10.79,29.2-16.07,60.39-15.53,91.5.08,5.19,8.15,5.19,8.07,0h0l.03.03Z" style="fill: #fff;"/>
    <path d="M35.04,60.81c5.19,0,5.19-8.07,0-8.07s-5.19,8.07,0,8.07h0Z" style="fill: #fff;"/>
    <path d="M64.3,46.2c5.19,0,5.19-8.07,0-8.07s-5.19,8.07,0,8.07h0Z" style="fill: #fff;"/>
    <path d="M100.84,54.62c5.19,0,5.19-8.07,0-8.07s-5.19,8.07,0,8.07h0Z" style="fill: #fff;"/>
    <path d="M29.98,108.07c5.19,0,5.19-8.07,0-8.07s-5.19,8.07,0,8.07h0Z" style="fill: #fff;"/>
    <path d="M68.79,114.23c5.19,0,5.19-8.07,0-8.07s-5.19,8.07,0,8.07h0Z" style="fill: #fff;"/>
    <path d="M99.74,86.67c5.19,0,5.19-8.07,0-8.07s-5.19,8.07,0,8.07h0Z" style="fill: #fff;"/>
    <path d="M46.29,82.75c5.19,0,5.19-8.07,0-8.07s-5.19,8.07,0,8.07h0Z" style="fill: #fff;"/>
    <path d="M75.55,70.37c5.19,0,5.19-8.07,0-8.07s-5.19,8.07,0,8.07h0Z" style="fill: #fff;"/>
    <path d="M68.23,90.63c5.19,0,5.19-8.07,0-8.07s-5.19,8.07,0,8.07h0Z" style="fill: #fff;"/>
  </g>
</svg>