<?xml version="1.0" encoding="UTF-8"?>
<svg id="uuid-bfb5b162-24a9-49bc-91d9-95c04c384c34" data-name="uuid-3ef277c4-39cd-4390-82f8-7e98aaca97ad" xmlns="http://www.w3.org/2000/svg" viewBox="0 0 164.74 274.62">
  <path d="M2.5,22.9C54.89-14.88,107.32,11.39,107.32,11.39c26.7,12.83,64.8,50.03,52.56,95.71-11.66,43.48-57.76,47.55-92.13,41.21-27.99-5.38-52.55-7.67-50.6-22.41,1.44-10.83,13.83-14.03,30.32-12.98,14.78.95,29.11,5.31,42.26,12.13,26.45,13.72,51.16,34.51,51.33,65.01.14,25.03-10.41,70.38-48.13,80.22-27.08,7.06-58.57-6.69-76.9-34.85" style="fill: #fff; stroke: #fff; stroke-linecap: round; stroke-linejoin: round; stroke-width: 5px;"/>
  <polygon points="129.71 241.34 132.95 251.55 140.49 242.44 129.71 241.34" style="fill: #fff; stroke: #fff; stroke-miterlimit: 10;"/>
</svg>